<svg width="632" height="614" viewBox="0 0 632 614" fill="none" xmlns="http://www.w3.org/2000/svg">
<path d="M620.215 367.112L620.204 367.062L620.193 367.013L569.374 146.289L569.366 146.254L569.357 146.219C567.652 139.051 564.368 132.355 559.743 126.619C555.119 120.884 549.271 116.254 542.628 113.068L542.62 113.064L542.612 113.061L336.982 14.8842L336.954 14.871L336.927 14.8579C329.51 11.3725 321.364 9.71973 313.175 10.0388L313.143 10.04L313.112 10.0415C306.51 10.3405 300.04 11.998 294.108 14.9102L88.527 113.201L88.5052 113.212L88.4835 113.222C81.8662 116.426 76.0408 121.055 71.4263 126.778C66.8118 132.502 63.5227 139.176 61.7956 146.322L61.7815 146.381L61.7681 146.439L11.2259 367.163L11.2251 367.167C9.76041 373.574 9.60736 380.211 10.7752 386.679C11.9343 393.099 14.3709 399.22 17.9399 404.679C18.8206 406.096 19.8029 407.446 20.879 408.72L163.146 585.586L163.171 585.617L163.196 585.648C167.856 591.347 173.716 595.947 180.359 599.118C187.002 602.29 194.263 603.956 201.624 603.996L201.652 603.996H201.679H429.881H429.908L429.935 603.996C437.297 603.956 444.558 602.29 451.201 599.118C457.844 595.947 463.704 591.347 468.363 585.648L468.388 585.617L468.413 585.586L610.762 408.619L610.815 408.554L610.866 408.488C615.365 402.699 618.534 395.992 620.149 388.841C621.765 381.69 621.787 374.272 620.215 367.112Z" fill="white" stroke="white" stroke-width="20"/>
<path d="M382.547 396.132H393.088L387.818 383.267L382.547 396.132ZM197.371 393.015V392.901C197.371 386.101 192.383 380.433 185.355 380.433C178.328 380.433 173.454 385.987 173.454 392.788V392.901C173.454 399.702 178.441 405.369 185.469 405.369C192.495 405.369 197.371 399.815 197.371 393.015ZM275.422 380.943H268.677V404.859H275.422C282.562 404.859 287.378 400.042 287.378 393.015V392.901C287.378 385.874 282.562 380.943 275.422 380.943Z" fill="#427AF4"/>
<path d="M611.641 369.09L560.821 148.366C559.461 142.648 556.841 137.306 553.151 132.73C549.462 128.154 544.797 124.46 539.497 121.918L333.866 23.7419C327.899 20.9377 321.345 19.608 314.757 19.8647C309.512 20.1023 304.374 21.4223 299.664 23.7419L94.0333 122.057C88.7458 124.616 84.0911 128.316 80.4039 132.889C76.7168 137.462 74.0887 142.795 72.7087 148.505L22.1665 369.229C21.0025 374.321 20.8808 379.596 21.8089 384.736C22.737 389.876 24.6956 394.775 27.5669 399.139C28.2261 400.209 28.9668 401.228 29.7824 402.185L172.131 579.152C175.859 583.711 180.547 587.391 185.861 589.928C191.175 592.465 196.983 593.798 202.872 593.83H431.073C436.962 593.798 442.771 592.465 448.085 589.928C453.399 587.391 458.087 583.711 461.814 579.152L604.163 402.185C607.761 397.555 610.296 392.19 611.588 386.471C612.88 380.751 612.898 374.817 611.641 369.09ZM196.502 568.628L97.2462 445.335L46.1221 381.83L55.3107 341.869L72.7012 266.238H47.5674L72.7777 155.312H98.209L99.7107 148.782L316.834 45.0665L533.958 148.782L535.46 155.312H556.818L587.07 266.238H560.983L578.384 341.869L587.547 381.691L534.575 447.661L437.443 568.628H196.502Z" fill="#427AF4"/>
<path d="M200.237 561.199H433.432L524.725 447.609L534.575 447.661L587.546 381.691L578.384 341.869H570.012L552.621 266.238H587.07L556.818 155.312H527.114L526.977 154.717L316.834 54.4702L106.691 154.851L106.585 155.312H72.7777L47.5673 266.238H81.0771L63.6866 341.869H55.3107L46.1221 381.83L97.2462 445.335L107.089 445.387L200.237 561.199ZM429.545 553.024H204.258L117.648 445.443L514.23 447.553L429.545 553.024ZM107.477 405.369C112.01 405.369 114.787 403.556 117.904 400.722L123.458 406.332C119.377 410.696 114.844 413.416 107.193 413.416C101.883 413.503 96.7564 411.476 92.9408 407.782C89.1252 404.088 86.9333 399.03 86.8472 393.72C86.8434 393.485 86.8437 393.25 86.8482 393.015V392.901C86.7528 387.554 88.7851 382.389 92.4982 378.541C96.2112 374.693 101.301 372.478 106.647 372.382C106.943 372.377 107.238 372.378 107.533 372.386C115.014 372.386 119.491 374.88 123.174 378.507L117.621 384.911C114.561 382.134 111.444 380.433 107.477 380.433C100.789 380.433 95.9719 385.987 95.9719 392.788V392.901C95.9718 399.702 100.676 405.369 107.477 405.369ZM160.358 404.802V412.736H131.852V373.066H140.579V404.802L160.358 404.802ZM164.33 393.015V392.901C164.33 381.624 173.228 372.386 185.469 372.386C197.711 372.386 206.494 381.51 206.494 392.788V392.901C206.494 404.179 197.597 413.416 185.355 413.416C173.114 413.416 164.33 404.292 164.33 393.015ZM232.344 405.312C237.671 405.312 240.901 402.082 240.901 395.792V373.066H249.629V395.451C249.629 407.466 242.884 413.359 232.23 413.359C221.576 413.359 215.058 407.409 215.058 395.735V373.066H223.786V395.508C223.786 401.968 227.016 405.312 232.344 405.312ZM259.95 412.736V373.066H275.422C287.889 373.066 296.503 381.624 296.503 392.788V392.901C296.503 404.066 287.889 412.736 275.422 412.736L259.95 412.736ZM324.112 412.736V373.066H332.158L350.747 397.491V373.066H359.361V412.736H351.937L332.724 387.517V412.736L324.112 412.736ZM408.566 381.113V373.066H441.435V381.113H429.365V412.736H420.638V381.113H408.566ZM408.956 412.736H399.833L396.206 403.839H379.431L375.804 412.736H366.907L383.908 372.782H391.956L408.956 412.736ZM449.942 412.736V373.066H458.67V412.736H449.942ZM466.607 373.066H476.242L486.612 401.005L496.984 373.066H506.39L490.353 413.019H482.645L466.607 373.066ZM541.308 388.878V396.642H522.605V404.972H544.141V412.736H513.936V373.066H543.858V380.83H522.605V388.878L541.308 388.878ZM499.482 225.433C498.277 224.916 496.728 224.056 494.492 223.196C492.943 222.507 491.394 221.819 490.018 221.131C488.8 220.368 487.649 219.505 486.576 218.55C485.58 217.586 484.815 216.41 484.339 215.108C483.835 213.495 483.602 211.808 483.651 210.118C483.573 208.447 483.891 206.781 484.578 205.256C485.266 203.731 486.304 202.39 487.609 201.343C490.19 199.106 493.975 198.073 498.449 198.073C500.696 198.068 502.94 198.24 505.16 198.59C506.913 198.917 508.639 199.377 510.322 199.966L508.429 208.742C507.152 208.214 505.826 207.811 504.472 207.537C502.833 207.178 501.159 207.004 499.482 207.021C496.04 207.021 494.32 207.882 494.32 209.946C494.279 210.356 494.338 210.769 494.492 211.151C494.669 211.573 494.969 211.933 495.352 212.183C496.04 212.527 496.556 212.872 497.245 213.216C498.194 213.678 499.171 214.08 500.17 214.42C502.21 215.134 504.17 216.057 506.02 217.173C507.363 217.964 508.581 218.95 509.634 220.099C510.555 221.06 511.208 222.247 511.527 223.54C511.899 224.943 512.073 226.391 512.043 227.842C512.126 229.531 511.793 231.215 511.073 232.745C510.353 234.275 509.268 235.605 507.913 236.617C504.988 238.682 501.03 239.543 495.868 239.543C493.041 239.622 490.214 239.391 487.437 238.854C485.796 238.528 484.184 238.068 482.619 237.478L484.512 228.358C486.309 229.244 488.22 229.881 490.19 230.251C492.063 230.593 493.964 230.766 495.868 230.767C497.264 230.837 498.662 230.662 499.998 230.251C500.413 230.012 500.749 229.656 500.963 229.228C501.177 228.799 501.26 228.317 501.202 227.842C501.202 226.809 500.514 226.121 499.482 225.433ZM316.7 63.5836L508.911 155.312H124.755L316.7 63.5836ZM476.424 222.68L451.99 222.335C452.018 223.436 452.315 224.513 452.855 225.473C453.395 226.433 454.161 227.246 455.088 227.842C456.808 229.218 459.217 229.907 462.315 229.907C464.276 229.913 466.235 229.74 468.165 229.39C469.821 229.129 471.439 228.667 472.983 228.014L474.359 237.133C473.577 237.475 472.772 237.762 471.95 237.994C470.918 238.166 469.886 238.51 468.681 238.682C467.477 238.854 466.1 239.026 464.896 239.198C463.581 239.342 462.259 239.399 460.938 239.37C457.872 239.381 454.833 238.797 451.99 237.65C449.617 236.761 447.481 235.335 445.75 233.485C444.019 231.634 442.739 229.408 442.01 226.981C441.152 224.373 440.745 221.639 440.806 218.894C440.795 215.772 441.379 212.677 442.526 209.774C443.363 207.337 444.712 205.107 446.484 203.236C448.131 201.516 450.126 200.167 452.334 199.278C454.473 198.448 456.751 198.039 459.045 198.073C464.379 198.073 468.681 199.794 471.778 203.236C474.875 206.677 476.596 211.839 476.596 218.378V220.615C476.596 221.475 476.424 222.163 476.424 222.68ZM435.299 199.278V208.57H422.394V222.335C422.35 224.296 422.763 226.24 423.598 228.014C424.459 229.39 426.007 230.079 428.416 230.079C429.628 230.058 430.836 229.943 432.03 229.734C433.139 229.529 434.232 229.241 435.299 228.874L436.676 237.65C435.295 238.261 433.853 238.723 432.374 239.026C430.447 239.4 428.486 239.573 426.524 239.542C424.058 239.636 421.599 239.226 419.297 238.338C417.571 237.534 416.043 236.359 414.823 234.897C413.646 233.312 412.825 231.493 412.414 229.562C411.894 227.306 411.663 224.994 411.726 222.68V189.642L422.394 187.749V199.278L435.299 199.278ZM382.129 227.842C383.85 229.218 386.259 229.907 389.356 229.907C391.318 229.913 393.276 229.74 395.207 229.39C396.863 229.129 398.481 228.667 400.025 228.014L401.401 237.133C400.619 237.475 399.814 237.762 398.992 237.994C397.96 238.166 396.927 238.51 395.723 238.682C394.518 238.854 393.142 239.026 391.937 239.198C390.623 239.342 389.301 239.399 387.98 239.37C384.914 239.381 381.875 238.797 379.032 237.65C376.659 236.761 374.523 235.335 372.792 233.485C371.061 231.634 369.781 229.408 369.052 226.981C368.194 224.373 367.787 221.639 367.848 218.894C367.837 215.772 368.421 212.677 369.568 209.774C370.348 207.42 371.628 205.263 373.321 203.451C375.014 201.639 377.08 200.215 379.376 199.278C381.515 198.448 383.793 198.039 386.087 198.073C391.421 198.073 395.723 199.794 398.82 203.236C401.917 206.677 403.638 211.839 403.638 218.378V220.615C403.618 221.191 403.561 221.766 403.466 222.335H379.032C379.06 223.436 379.357 224.513 379.897 225.473C380.437 226.433 381.203 227.246 382.129 227.842ZM347.887 210.29C346.855 208.742 345.306 208.054 342.725 208.054C342.037 208.054 341.349 208.226 340.316 208.226C339.509 208.184 338.7 208.242 337.907 208.398V238.682H327.239V200.827C328.959 200.31 331.368 199.966 334.294 199.45C337.308 198.958 340.359 198.728 343.413 198.762C346.16 198.674 348.899 199.082 351.501 199.966C353.584 200.546 355.405 201.821 356.663 203.58C358.017 205.228 358.961 207.174 359.416 209.258C359.934 211.631 360.165 214.057 360.104 216.485L359.932 238.682H349.264V217.862C349.264 214.248 348.748 211.667 347.887 210.29ZM321.733 200.138L319.84 209.258C318.656 208.93 317.448 208.7 316.226 208.57C314.859 208.363 313.479 208.248 312.097 208.226C311.29 208.209 310.484 208.266 309.688 208.398C308.928 208.386 308.172 208.502 307.451 208.742V238.854H296.782V201.687C298.994 200.747 301.302 200.055 303.665 199.622C306.555 199.046 309.494 198.758 312.441 198.762C313.301 198.762 313.817 198.934 314.678 198.934C315.366 199.106 316.226 199.106 317.087 199.278C317.898 199.32 318.705 199.435 319.496 199.622C320.267 199.651 321.026 199.826 321.733 200.138ZM266.842 227.842C268.563 229.218 270.972 229.907 274.069 229.907C276.031 229.913 277.989 229.74 279.919 229.39C281.575 229.129 283.193 228.667 284.737 228.014L286.114 237.134C285.331 237.475 284.527 237.762 283.705 237.994C282.672 238.166 281.64 238.51 280.436 238.682C279.231 238.854 277.854 239.026 276.65 239.198C275.336 239.341 274.014 239.399 272.692 239.37C269.627 239.381 266.588 238.797 263.745 237.65C261.372 236.761 259.236 235.335 257.505 233.485C255.773 231.634 254.493 229.408 253.765 226.981C252.907 224.373 252.5 221.639 252.56 218.894C252.55 215.772 253.134 212.677 254.281 209.774C255.117 207.337 256.467 205.107 258.238 203.236C259.886 201.516 261.88 200.167 264.089 199.278C266.227 198.448 268.506 198.039 270.8 198.073C276.134 198.073 280.436 199.794 283.533 203.236C286.63 206.677 288.351 211.839 288.351 218.378V220.615C288.351 221.475 288.179 222.163 288.179 222.68L263.745 222.335C263.773 223.436 264.07 224.513 264.61 225.473C265.15 226.433 265.916 227.246 266.842 227.842ZM225.201 198.934C226.568 198.727 227.948 198.612 229.33 198.59C231.751 198.563 234.152 199.032 236.385 199.966C238.501 200.841 240.343 202.267 241.72 204.096C243.156 205.997 244.208 208.159 244.817 210.463C245.53 213.215 245.877 216.05 245.849 218.894C245.908 221.808 245.502 224.712 244.645 227.498C243.909 229.942 242.613 232.181 240.859 234.036C239.124 235.853 237.009 237.263 234.665 238.166C231.952 239.096 229.101 239.562 226.233 239.543C224.912 239.567 223.59 239.51 222.276 239.37L218.146 238.854C216.941 238.682 215.393 238.51 214.016 238.338C212.812 237.994 211.607 237.822 210.747 237.478V182.759L221.415 180.866V200.138C222.651 199.659 223.915 199.257 225.201 198.934ZM168.762 228.702C168.253 226.27 168.022 223.788 168.073 221.303V199.45H178.742V220.099C178.742 223.712 179.086 226.121 180.118 227.842C181.151 229.562 182.699 230.251 185.28 230.251C185.969 230.251 186.829 230.079 187.689 230.079C188.496 230.12 189.305 230.063 190.098 229.907V199.622H200.767V237.478C199.046 237.994 196.637 238.338 193.712 238.854C190.698 239.346 187.646 239.577 184.592 239.542C181.846 239.63 179.106 239.222 176.505 238.338C174.438 237.632 172.637 236.311 171.343 234.553C170.246 232.716 169.379 230.751 168.762 228.702ZM141.574 209.602C142.607 208.398 143.811 207.021 144.844 205.817C145.704 204.612 146.909 203.236 147.769 202.203C148.632 201.279 149.436 200.302 150.178 199.278H162.911C160.502 202.375 157.921 205.3 155.512 208.054C152.931 210.807 150.35 213.732 147.425 216.657C148.801 217.862 150.178 219.582 151.899 220.959C153.447 222.852 154.996 224.744 156.373 226.809C157.749 228.874 159.126 230.767 160.33 232.832C161.535 234.897 162.567 236.617 163.427 238.338H151.038C150.35 237.134 149.318 235.757 148.457 234.036C147.597 232.316 146.392 230.939 145.36 229.218C144.31 227.655 143.16 226.161 141.919 224.744C140.847 223.414 139.636 222.203 138.305 221.131V238.51H127.637V182.415L138.305 180.522V213.216C139.338 212.183 140.542 210.807 141.574 209.602ZM89.4309 266.238H544.081L561.488 341.869H72.0602L89.4309 266.238Z" fill="#427AF4"/>
<path d="M107.477 380.433C111.444 380.433 114.561 382.134 117.621 384.91L123.175 378.507C119.491 374.88 115.014 372.386 107.533 372.386C102.188 372.246 97.0058 374.236 93.1273 377.917C89.2488 381.598 86.9915 386.67 86.852 392.015C86.8443 392.31 86.8431 392.605 86.8483 392.901V393.015C86.7474 398.324 88.7598 403.457 92.443 407.283C96.1261 411.108 101.178 413.314 106.488 413.415C106.723 413.42 106.958 413.42 107.193 413.416C114.844 413.416 119.378 410.696 123.459 406.332L117.904 400.722C114.787 403.556 112.01 405.369 107.477 405.369C100.676 405.369 95.972 399.702 95.972 392.901V392.788C95.972 385.987 100.789 380.433 107.477 380.433ZM131.852 373.066V412.736H160.358V404.802H140.579V373.066H131.852ZM206.494 392.901V392.788C206.494 381.51 197.711 372.386 185.469 372.386C173.228 372.386 164.331 381.624 164.331 392.901V393.015C164.331 404.292 173.114 413.416 185.356 413.416C197.597 413.416 206.494 404.179 206.494 392.901ZM173.454 392.901V392.788C173.454 385.987 178.329 380.433 185.356 380.433C192.383 380.433 197.371 386.101 197.371 392.901V393.015C197.371 399.815 192.496 405.369 185.47 405.369C178.442 405.369 173.454 399.702 173.454 392.901ZM215.058 373.066V395.735C215.058 407.409 221.577 413.359 232.23 413.359C242.885 413.359 249.629 407.466 249.629 395.451V373.066H240.901V395.792C240.901 402.082 237.671 405.312 232.344 405.312C227.016 405.312 223.786 401.968 223.786 395.508V373.066H215.058ZM296.504 392.901V392.788C296.504 381.624 287.889 373.066 275.422 373.066H259.95V412.736H275.422C287.889 412.736 296.504 404.066 296.504 392.901ZM287.378 393.015C287.378 400.042 282.562 404.859 275.422 404.859H268.677V380.943H275.422C282.562 380.943 287.378 385.874 287.378 392.901V393.015ZM351.937 412.736H359.362V373.066H350.747V397.491L332.158 373.066H324.112V412.736H332.725V387.517L351.937 412.736ZM383.908 372.782L366.907 412.736H375.804L379.431 403.839H396.206L399.833 412.736H408.957L391.956 372.782H383.908ZM382.547 396.132L387.818 383.267L393.088 396.132H382.547ZM429.365 412.736V381.113H441.435V373.066H408.566V381.113H420.638V412.736H429.365ZM449.942 373.066H458.67V412.736H449.942V373.066ZM506.391 373.066H496.984L486.612 401.005L476.242 373.066H466.607L482.645 413.019H490.353L506.391 373.066ZM543.858 380.83V373.066H513.936V412.736H544.141V404.972H522.605V396.642H541.308V388.878H522.605V380.83H543.858Z" fill="white"/>
<path d="M273.95 289.118L261.516 318.338H268.023L270.676 311.831H282.944L285.597 318.338H292.27L279.836 289.118H273.95ZM272.955 306.194L276.81 296.786L280.665 306.194H272.955ZM317.26 307.189L303.664 289.325H297.778V318.338H304.079V299.894L318.129 318.338H323.558V289.325H317.26V307.189ZM342.871 289.326H331.555V318.338H342.871C351.989 318.338 358.289 311.997 358.289 303.832V303.749C358.289 295.584 351.989 289.326 342.871 289.326ZM351.615 303.915C351.615 309.054 348.093 312.578 342.871 312.578H337.938V295.086H342.871C344.035 295.027 345.199 295.213 346.287 295.632C347.374 296.05 348.362 296.692 349.186 297.517C350.01 298.341 350.652 299.329 351.071 300.417C351.489 301.504 351.675 302.668 351.615 303.832L351.615 303.915ZM276.478 209.946C275.82 209.267 275.066 208.688 274.241 208.226C273.298 207.698 272.221 207.459 271.144 207.537C270.088 207.512 269.037 207.687 268.046 208.054C267.173 208.439 266.406 209.029 265.809 209.774C265.306 210.522 264.901 211.332 264.605 212.183C264.295 213.079 264.065 214 263.917 214.936H263.745V215.108H278.198C278.11 214.177 277.937 213.256 277.682 212.355C277.338 211.323 277.166 210.463 276.478 209.946ZM391.593 209.946C390.935 209.267 390.181 208.688 389.356 208.226C388.413 207.698 387.336 207.459 386.259 207.537C385.203 207.512 384.152 207.687 383.162 208.054C382.288 208.439 381.521 209.029 380.925 209.774C380.421 210.522 380.017 211.332 379.72 212.183C379.41 213.079 379.18 214 379.032 214.936L378.86 214.936V215.108H393.314C393.21 214.179 393.037 213.259 392.797 212.355C392.453 211.323 392.281 210.463 391.593 209.946ZM464.551 210.118C463.893 209.439 463.139 208.86 462.314 208.398C461.371 207.87 460.294 207.631 459.217 207.709C458.161 207.684 457.11 207.859 456.12 208.226C455.246 208.611 454.479 209.201 453.883 209.946C453.38 210.694 452.975 211.504 452.678 212.355C452.334 213.216 452.162 214.076 451.818 215.281H466.272C466.168 214.351 465.995 213.431 465.756 212.527C465.411 211.495 465.239 210.635 464.551 210.118ZM221.415 229.907C222.103 229.907 222.62 230.079 223.48 230.079C224.39 230.222 225.312 230.279 226.233 230.251C229.33 230.251 231.567 229.218 232.944 227.153C234.548 224.644 235.33 221.697 235.181 218.722C235.181 211.667 232.772 208.054 227.61 208.054C226.509 207.997 225.405 208.113 224.34 208.398C223.265 208.605 222.26 209.078 221.415 209.774V229.907Z" fill="#427AF4"/>
<path d="M476.596 218.378C476.596 211.839 474.875 206.677 471.778 203.236C468.681 199.794 464.379 198.073 459.045 198.073C456.751 198.039 454.473 198.448 452.334 199.278C450.126 200.167 448.131 201.516 446.484 203.236C444.712 205.107 443.363 207.337 442.526 209.774C441.379 212.677 440.795 215.772 440.806 218.894C440.745 221.639 441.152 224.373 442.01 226.981C442.739 229.408 444.019 231.634 445.75 233.485C447.481 235.335 449.617 236.761 451.99 237.65C454.833 238.797 457.872 239.381 460.938 239.37C462.259 239.399 463.581 239.342 464.896 239.198C466.1 239.026 467.477 238.854 468.681 238.682C469.886 238.51 470.918 238.166 471.95 237.994C472.772 237.762 473.577 237.475 474.359 237.133L472.983 228.014C471.439 228.667 469.821 229.129 468.165 229.39C466.235 229.74 464.276 229.913 462.315 229.907C459.217 229.907 456.808 229.218 455.088 227.842C454.161 227.246 453.395 226.433 452.855 225.473C452.315 224.513 452.018 223.436 451.99 222.335L476.424 222.68C476.424 222.163 476.596 221.475 476.596 220.615V218.378ZM451.818 215.28C452.162 214.076 452.334 213.216 452.678 212.355C452.975 211.504 453.38 210.694 453.883 209.946C454.479 209.201 455.247 208.611 456.12 208.226C457.11 207.859 458.161 207.684 459.217 207.709C460.295 207.631 461.371 207.87 462.314 208.398C463.139 208.86 463.893 209.439 464.551 210.118C465.239 210.635 465.412 211.495 465.756 212.527C465.995 213.431 466.168 214.351 466.272 215.28H451.818ZM499.998 230.251C498.662 230.662 497.264 230.836 495.868 230.767C493.964 230.766 492.063 230.593 490.19 230.251C488.22 229.881 486.309 229.244 484.511 228.358L482.619 237.478C484.184 238.068 485.796 238.528 487.437 238.854C490.213 239.391 493.041 239.622 495.868 239.542C501.03 239.542 504.988 238.682 507.913 236.617C509.268 235.605 510.353 234.275 511.073 232.745C511.793 231.214 512.126 229.531 512.043 227.842C512.073 226.391 511.899 224.943 511.527 223.54C511.207 222.247 510.555 221.06 509.634 220.098C508.581 218.95 507.363 217.964 506.02 217.173C504.17 216.057 502.21 215.134 500.17 214.42C499.171 214.08 498.194 213.678 497.245 213.216C496.556 212.871 496.04 212.527 495.352 212.183C494.968 211.933 494.669 211.573 494.492 211.151C494.338 210.769 494.279 210.356 494.319 209.946C494.319 207.881 496.04 207.021 499.482 207.021C501.159 207.004 502.833 207.177 504.472 207.537C505.826 207.811 507.152 208.214 508.429 208.742L510.322 199.966C508.639 199.377 506.913 198.917 505.16 198.59C502.94 198.24 500.696 198.067 498.449 198.073C493.975 198.073 490.19 199.106 487.609 201.343C486.304 202.39 485.266 203.731 484.578 205.256C483.891 206.781 483.573 208.447 483.651 210.118C483.602 211.808 483.834 213.495 484.339 215.108C484.815 216.41 485.58 217.586 486.576 218.55C487.649 219.505 488.8 220.368 490.018 221.131C491.394 221.819 492.943 222.507 494.491 223.196C496.728 224.056 498.277 224.916 499.481 225.433C500.514 226.121 501.202 226.809 501.202 227.841C501.26 228.317 501.177 228.799 500.963 229.227C500.749 229.656 500.413 230.012 499.998 230.251ZM403.638 220.615L403.638 218.378C403.638 211.839 401.917 206.677 398.82 203.236C395.723 199.794 391.421 198.073 386.087 198.073C383.793 198.039 381.515 198.448 379.376 199.278C377.08 200.215 375.015 201.639 373.321 203.451C371.628 205.263 370.348 207.42 369.568 209.774C368.421 212.677 367.837 215.772 367.848 218.894C367.787 221.639 368.194 224.373 369.052 226.981C369.781 229.408 371.061 231.634 372.792 233.485C374.523 235.335 376.659 236.761 379.032 237.65C381.875 238.797 384.914 239.381 387.98 239.37C389.301 239.399 390.623 239.342 391.937 239.198C393.142 239.026 394.518 238.854 395.723 238.682C396.927 238.51 397.96 238.166 398.992 237.994C399.814 237.762 400.619 237.475 401.401 237.133L400.025 228.014C398.481 228.667 396.863 229.129 395.207 229.39C393.276 229.74 391.318 229.913 389.356 229.907C386.259 229.907 383.85 229.218 382.129 227.842C381.203 227.246 380.437 226.433 379.897 225.473C379.357 224.513 379.06 223.436 379.032 222.335H403.466C403.561 221.766 403.618 221.191 403.638 220.615ZM378.86 215.108V214.936L379.032 214.936C379.18 214 379.41 213.079 379.72 212.183C380.017 211.332 380.422 210.522 380.925 209.774C381.521 209.029 382.289 208.439 383.162 208.053C384.152 207.687 385.203 207.512 386.259 207.537C387.337 207.459 388.413 207.698 389.356 208.226C390.181 208.688 390.935 209.267 391.593 209.946C392.281 210.462 392.454 211.323 392.798 212.355C393.037 213.259 393.21 214.179 393.314 215.108H378.86ZM176.505 238.338C179.106 239.222 181.846 239.63 184.592 239.542C187.646 239.577 190.698 239.346 193.712 238.854C196.637 238.338 199.046 237.994 200.767 237.478V199.622H190.098V229.906C189.306 230.062 188.496 230.12 187.689 230.079C186.829 230.079 185.969 230.251 185.28 230.251C182.699 230.251 181.151 229.562 180.118 227.842C179.086 226.121 178.742 223.712 178.742 220.098V199.45H168.073V221.303C168.022 223.787 168.253 226.27 168.762 228.702C169.379 230.751 170.246 232.715 171.343 234.552C172.637 236.311 174.438 237.632 176.505 238.338ZM359.932 238.682L360.104 216.485C360.165 214.057 359.934 211.631 359.416 209.258C358.961 207.174 358.017 205.228 356.663 203.58C355.405 201.821 353.584 200.546 351.501 199.966C348.899 199.082 346.16 198.674 343.413 198.762C340.359 198.728 337.308 198.958 334.294 199.45C331.368 199.966 328.959 200.31 327.239 200.827V238.682H337.907V208.398C338.7 208.242 339.509 208.184 340.316 208.226C341.349 208.226 342.037 208.053 342.725 208.053C345.306 208.053 346.855 208.742 347.887 210.29C348.748 211.667 349.264 214.248 349.264 217.862V238.682H359.932ZM314.678 198.934C313.817 198.934 313.301 198.762 312.441 198.762C309.494 198.758 306.555 199.046 303.665 199.622C301.302 200.055 298.994 200.747 296.782 201.687V238.854H307.451V208.742C308.172 208.502 308.928 208.385 309.688 208.398C310.484 208.266 311.29 208.209 312.097 208.226C313.479 208.248 314.859 208.362 316.226 208.57C317.448 208.7 318.656 208.93 319.84 209.258L321.733 200.138C321.026 199.826 320.267 199.651 319.496 199.622C318.705 199.435 317.898 199.32 317.087 199.278C316.226 199.106 315.366 199.106 314.678 198.934ZM288.351 220.615V218.378C288.351 211.839 286.63 206.677 283.533 203.236C280.436 199.794 276.134 198.073 270.8 198.073C268.506 198.039 266.227 198.448 264.089 199.278C261.88 200.167 259.886 201.516 258.238 203.236C256.467 205.107 255.117 207.337 254.281 209.774C253.134 212.677 252.55 215.772 252.56 218.894C252.5 221.639 252.907 224.373 253.765 226.981C254.493 229.408 255.773 231.634 257.505 233.485C259.236 235.335 261.372 236.761 263.745 237.65C266.588 238.797 269.627 239.381 272.692 239.37C274.014 239.399 275.336 239.342 276.65 239.198C277.854 239.026 279.231 238.854 280.436 238.682C281.64 238.51 282.672 238.166 283.705 237.994C284.527 237.762 285.331 237.475 286.114 237.134L284.737 228.014C283.193 228.667 281.575 229.129 279.919 229.39C277.989 229.74 276.031 229.913 274.069 229.907C270.972 229.907 268.563 229.218 266.842 227.842C265.916 227.246 265.15 226.433 264.61 225.473C264.07 224.513 263.773 223.436 263.745 222.335L288.179 222.68C288.179 222.163 288.351 221.475 288.351 220.615ZM263.745 215.108V214.936H263.917C264.065 214 264.295 213.079 264.605 212.183C264.902 211.332 265.306 210.522 265.81 209.774C266.406 209.029 267.173 208.439 268.046 208.054C269.037 207.687 270.088 207.512 271.144 207.537C272.221 207.459 273.298 207.698 274.241 208.226C275.066 208.688 275.82 209.267 276.478 209.946C277.166 210.463 277.338 211.323 277.682 212.355C277.937 213.256 278.11 214.177 278.199 215.108H263.745ZM210.747 182.759V237.478C211.607 237.822 212.812 237.994 214.016 238.338C215.393 238.51 216.941 238.682 218.146 238.854L222.276 239.37C223.59 239.51 224.912 239.567 226.233 239.542C229.101 239.562 231.952 239.096 234.665 238.166C237.009 237.263 239.124 235.853 240.859 234.036C242.613 232.181 243.909 229.942 244.645 227.497C245.502 224.712 245.908 221.808 245.849 218.894C245.877 216.05 245.53 213.215 244.817 210.463C244.208 208.159 243.156 205.996 241.72 204.096C240.343 202.267 238.501 200.841 236.385 199.966C234.152 199.032 231.751 198.563 229.33 198.59C227.948 198.612 226.568 198.727 225.201 198.934C223.915 199.257 222.651 199.659 221.415 200.138V180.866L210.747 182.759ZM224.34 208.398C225.406 208.113 226.509 207.997 227.61 208.054C232.772 208.054 235.181 211.667 235.181 218.722C235.33 221.697 234.548 224.644 232.944 227.153C231.567 229.218 229.33 230.251 226.233 230.251C225.312 230.279 224.39 230.222 223.48 230.079C222.62 230.079 222.104 229.907 221.415 229.907V209.774C222.26 209.078 223.266 208.605 224.34 208.398ZM411.726 189.642V222.68C411.663 224.994 411.894 227.306 412.414 229.562C412.825 231.493 413.646 233.312 414.823 234.897C416.043 236.359 417.571 237.534 419.297 238.338C421.599 239.226 424.058 239.636 426.524 239.542C428.486 239.573 430.447 239.4 432.374 239.026C433.853 238.723 435.295 238.261 436.676 237.65L435.299 228.874C434.232 229.241 433.139 229.529 432.03 229.734C430.836 229.942 429.628 230.058 428.416 230.079C426.007 230.079 424.459 229.39 423.598 228.014C422.763 226.24 422.35 224.296 422.394 222.335V208.57H435.299V199.278H422.394V187.749L411.726 189.642ZM127.637 182.415V238.51H138.305V221.131C139.636 222.202 140.847 223.414 141.919 224.744C143.16 226.161 144.31 227.655 145.36 229.218C146.392 230.939 147.597 232.315 148.457 234.036C149.318 235.757 150.35 237.133 151.038 238.338H163.427C162.567 236.617 161.535 234.897 160.33 232.832C159.126 230.767 157.749 228.874 156.372 226.809C154.996 224.744 153.447 222.852 151.899 220.959C150.178 219.582 148.801 217.862 147.425 216.657C150.35 213.732 152.931 210.807 155.512 208.054C157.921 205.3 160.502 202.375 162.911 199.278H150.178C149.436 200.302 148.632 201.279 147.769 202.203C146.909 203.236 145.704 204.612 144.844 205.817C143.811 207.021 142.607 208.398 141.574 209.602C140.542 210.807 139.337 212.183 138.305 213.216V180.522L127.637 182.415Z" fill="white"/>
<path d="M195.93 498.566L198.582 492.059H210.851L213.503 498.566H220.177L207.742 469.346H201.857L189.422 498.566H195.93ZM204.716 477.014L208.571 486.422H200.862L204.716 477.014ZM235.716 493.344C232.498 493.256 229.42 492.004 227.054 489.821L223.282 494.339C226.676 497.345 231.058 498.998 235.593 498.981C241.85 498.981 246.244 495.748 246.244 489.987V489.904C246.244 484.848 242.929 482.734 237.043 481.2C232.027 479.915 230.784 479.293 230.784 477.386V477.304C230.784 475.895 232.069 474.776 234.514 474.776C236.959 474.776 239.489 475.853 242.057 477.635L245.374 472.828C242.321 470.381 238.51 469.076 234.598 469.139C228.671 469.139 224.443 472.62 224.443 477.884V477.967C224.443 483.728 228.214 485.344 234.058 486.837C238.908 488.08 239.903 488.909 239.903 490.525V490.608C239.903 492.308 238.328 493.344 235.716 493.344ZM262.861 493.344C259.643 493.256 256.565 492.004 254.199 489.821L250.427 494.339C253.821 497.345 258.203 498.998 262.738 498.981C268.995 498.981 273.389 495.748 273.389 489.987V489.904C273.389 484.848 270.074 482.734 264.188 481.2C259.172 479.915 257.929 479.293 257.929 477.386V477.304C257.929 475.895 259.213 474.776 261.659 474.776C264.104 474.776 266.633 475.853 269.202 477.635L272.519 472.828C269.466 470.381 265.655 469.076 261.743 469.139C255.816 469.139 251.588 472.62 251.588 477.884V477.967C251.588 483.728 255.359 485.344 261.203 486.837C266.053 488.08 267.048 488.909 267.048 490.525V490.608C267.048 492.308 265.472 493.344 262.861 493.344ZM294.068 499.064C303.021 499.064 309.528 492.308 309.528 484.06V483.977C309.528 475.729 303.103 469.056 294.152 469.056C285.199 469.056 278.691 475.812 278.691 484.06V484.143C278.691 492.39 285.115 499.064 294.068 499.064ZM285.363 483.977C285.363 479.003 288.929 474.941 294.068 474.941C295.225 474.944 296.371 475.175 297.439 475.621C298.508 476.067 299.478 476.718 300.294 477.539C301.111 478.36 301.757 479.333 302.198 480.404C302.638 481.475 302.863 482.621 302.86 483.779C302.859 483.873 302.858 483.966 302.854 484.06V484.143C302.854 489.116 299.291 493.178 294.152 493.178C292.994 493.175 291.848 492.945 290.78 492.499C289.712 492.053 288.741 491.402 287.925 490.581C287.108 489.761 286.461 488.788 286.021 487.717C285.581 486.647 285.355 485.5 285.358 484.342C285.358 484.248 285.36 484.154 285.363 484.06L285.363 483.977ZM329.835 499.064C332.08 499.158 334.318 498.74 336.379 497.843C338.439 496.945 340.269 495.591 341.73 493.883L337.668 489.78C335.388 491.852 333.357 493.178 330.042 493.178C325.067 493.178 321.627 489.034 321.627 484.06V483.977C321.627 479.003 325.151 474.941 330.042 474.941C332.943 474.941 335.222 476.185 337.46 478.216L341.522 473.532C338.829 470.88 335.554 469.056 330.083 469.056C328.147 469.005 326.221 469.337 324.413 470.031C322.605 470.725 320.952 471.768 319.547 473.101C318.143 474.434 317.015 476.03 316.227 477.799C315.44 479.568 315.008 481.475 314.958 483.411C314.952 483.627 314.951 483.843 314.955 484.06V484.143C314.881 488.026 316.353 491.78 319.047 494.578C321.741 497.376 325.436 498.989 329.32 499.063C329.491 499.066 329.663 499.067 329.835 499.064ZM348.15 469.554H354.534V498.567H348.15V469.554ZM369.495 492.059H381.763L384.415 498.566H391.089L378.655 469.346H372.769L360.335 498.566H366.842L369.495 492.059ZM375.629 477.014L379.483 486.422H371.774L375.629 477.014ZM399.624 498.566H406.007V475.438H414.836V469.554H390.796V475.438H399.624V498.566ZM442.849 492.888H427.099V486.796H440.777V481.117H427.099V475.231H442.642V469.554H420.758V498.566H442.849V492.888Z" fill="#427AF4"/>
</svg>
